<svg version="1.1" xmlns="http://www.w3.org/2000/svg" xmlns:xlink="http://www.w3.org/1999/xlink" width="140.63085" height="156.81477" viewBox="0,0,140.63085,156.81477"><g transform="translate(-172.06124,-81.56523)"><g data-paper-data="{&quot;isPaintingLayer&quot;:true}" fill-rule="nonzero" stroke="none" stroke-width="1" stroke-linecap="butt" stroke-linejoin="miter" stroke-miterlimit="10" stroke-dasharray="" stroke-dashoffset="0" style="mix-blend-mode: normal"><g><path d="M310.29509,165.41691c-2.337,0.658 -11.324,5.09 -14.679,10.48c-5.333,8.505 -4.913,19.285 -5.692,20.363c-1.618,0.659 -13.182,-2.156 -16.597,6.109c-3.415,8.325 0,15.931 0,15.931c0,0 -24.805,-6.109 -29.059,-9.403l8.508,-30.664l31.755,-14.613c0,0 24.566,-21.68 28.041,-25.933c0.359,4.612 -1.199,23.477 -2.277,27.73z" fill="#c8c8be"/><path d="M273.38709,202.36891l-16.177,-6.109l2.996,-4.372l13.181,10.481" fill="#f0e6d2"/><path d="M310.29509,165.35691l-16.597,-10.361l4.614,-5.33l11.983,15.691" fill="#f0e6d2"/><path d="M289.98409,196.25991l-23.248,-24.675l8.688,-6.648l14.56,31.323" fill="#f0e6d2"/><path d="M259.00709,185.41991c-0.659,-1.557 -1.498,-13.236 -1.258,-14.374c10.425,-4.072 20.132,-10.181 29.359,-16.41c4.254,-2.934 8.208,-6.228 11.923,-9.822c3.175,-2.994 6.411,-7.306 10.186,-9.522c0.119,0.659 -1.978,2.455 -1.558,2.994c0.419,0.539 3.055,-2.036 3.894,-2.515c0,0.779 -2.876,3.414 -2.037,4.013c0.839,0.599 2.696,-1.797 3.176,-2.097c-1.678,4.133 -4.973,7.966 -7.729,11.38c-3.955,4.851 -7.969,9.522 -12.763,13.535c-8.567,7.187 -22.168,20.183 -33.193,22.818z" fill="#828278"/></g><g><path d="M207.21,220.586c0,0 -0.959,-12.696 -5.872,-16.889c-4.913,-4.192 -14.26,-4.791 -14.26,-4.791c0,0 -0.899,-11.379 -3.355,-18.686c-1.558,-4.491 -3.415,-10.66 -9.407,-10.001c-3.116,-11.32 -2.337,-24.016 -1.558,-35.575c-0.12,2.036 4.194,5.27 5.512,6.648c0.719,0.778 5.692,5.33 5.273,6.228c0.36,0.779 44.278,40.366 44.517,41.085z" fill="#c8c8be"/><path d="M201.937,204.236l20.731,-14.733l0.3,6.768l-21.031,7.965" fill="#f0e6d2"/><path d="M174.376,170.219l9.167,-17.668l4.254,4.432l-13.421,13.236" fill="#f0e6d2"/><path d="M187.138,198.906l13.301,-34.856l6.112,9.882l-19.413,24.974" fill="#f0e6d2"/><path d="M221.949,172.135c0,0 -0.3,11.559 -1.498,16.47c-1.917,-0.18 -14.859,-12.038 -16.956,-13.835c-4.014,-3.413 -7.789,-7.246 -11.504,-10.96c-4.194,-4.192 -7.909,-9.163 -11.444,-14.014c-2.996,-4.192 -7.25,-10.361 -7.729,-15.571c0.539,0.419 1.678,3.952 2.636,3.234c0.959,-0.719 -1.497,-3.893 -1.438,-5.031c0.54,0.419 2.697,4.013 3.476,3.593c0.479,-0.598 -1.498,-3.533 -1.498,-4.252c0.958,0.06 2.876,3.354 3.475,4.073c1.677,2.096 3.475,4.192 5.212,6.288c3.356,3.893 6.531,7.786 10.426,11.14c4.254,3.653 8.388,7.546 12.942,10.84c4.553,3.294 13.9,8.025 13.9,8.025z" fill="#828278"/></g><path d="M236.056,229.171c0,0 -1.261,5.023 -1.982,9.209l-0.961,-0.179c0.42,-2.153 0.781,-4.066 0.781,-4.066c0,0 -3.425,-3.887 -4.446,-5.562c-3.304,-5.322 -9.372,-20.869 -9.192,-25.653l11.955,8.79c0.241,1.914 3.845,17.461 3.845,17.461z" fill="#3c3c32"/><path d="M254.92,227.318c-3.124,5.441 -12.916,6.099 -12.916,6.099c0,1.196 -0.12,2.392 -0.361,3.528c-0.24,0.06 -0.42,0.06 -0.66,0l0.18,-6.996c0,0 4.085,-1.435 5.527,-4.126c1.201,-2.213 0.901,-4.545 -1.082,-6.279h-0.06c-0.3,-0.299 -4.265,-4.246 -4.565,-4.545l11.654,-7.056c0.961,1.794 2.944,12.139 3.064,14.172c0.12,1.495 -0.12,4.007 -0.781,5.203z" fill="#3c3c32"/><g><g fill="#64645a"><path d="M222.033,123.279l-0.42,-0.179c-0.06,-0.239 -0.06,-0.419 -0.06,-0.598c-0.12,-0.538 -0.181,-1.077 -0.301,-1.675c-0.12,-0.239 -0.06,-0.538 0.06,-0.777c0.301,0 0.421,0.06 0.481,0.299c0.06,0.419 0.18,0.897 0.24,1.316c0.06,0.358 0.12,0.717 0.12,1.076c-0.06,0.239 -0.12,0.419 -0.12,0.538z"/><path d="M221.252,124.057l-0.48,-0.06c-0.06,-0.18 -0.12,-0.419 -0.181,-0.598c-0.24,-0.538 -0.42,-1.017 -0.66,-1.555c-0.181,-0.419 -0.181,-0.419 -0.06,-0.777c0.3,-0.06 0.42,0 0.54,0.179c0.18,0.419 0.361,0.837 0.541,1.256c0.18,0.418 0.24,0.717 0.36,1.016c-0.06,0.18 -0.06,0.359 -0.06,0.539z"/><path d="M222.454,123.219c0,-0.358 0,-0.717 0.06,-1.076c0.06,-0.478 0.12,-0.897 0.18,-1.375c0,-0.24 0.06,-0.299 0.421,-0.359c0.18,0.359 0.18,0.359 0.12,0.777c-0.12,0.538 -0.18,1.136 -0.241,1.675c-0.06,0.179 -0.06,0.358 -0.06,0.598l-0.42,0.179c0,-0.12 -0.06,-0.299 -0.06,-0.419z"/></g><path d="M222.218,180.507c0,0 -4.325,-15.07 -5.287,-22.724c-0.781,-6.279 -0.66,-12.617 -0.36,-18.896c0.18,-4.067 0.601,-15.129 5.467,-16.744c6.128,1.674 9.011,17.641 9.972,22.664c1.262,6.518 3.905,23.202 4.326,29.839c-2.824,1.735 -14.118,5.861 -14.118,5.861z" fill="#64645a"/><path d="M222.819,170.042c0,0 -2.644,-14.83 -3.004,-26.73c-0.24,-8.193 1.081,-13.814 2.283,-14.173c3.004,-0.897 5.707,11.96 6.308,15.189c0.841,4.246 2.763,17.88 3.064,22.186c-1.863,1.136 -8.651,3.528 -8.651,3.528z" fill="#3c3c32"/></g><g><g fill="#64645a"><path d="M252.743,123.208l-0.361,-0.24c0,-0.239 0.06,-0.418 0.06,-0.598c0,-0.538 0.06,-1.136 0.06,-1.674c0,-0.419 0,-0.419 0.241,-0.718c0.3,0.12 0.36,0.18 0.36,0.419c0,0.478 -0.06,0.897 -0.06,1.375c0,0.479 -0.06,0.718 -0.12,1.077c-0.06,0.06 -0.12,0.179 -0.18,0.359z"/><path d="M251.781,123.746l-0.42,-0.18c0,-0.239 -0.06,-0.418 -0.06,-0.598c-0.12,-0.538 -0.18,-1.136 -0.301,-1.674c-0.12,-0.239 -0.06,-0.538 0.06,-0.777c0.361,0 0.421,0.059 0.481,0.299c0.06,0.478 0.18,0.897 0.24,1.315c0.06,0.419 0.121,0.718 0.121,1.077c0,0.239 -0.061,0.358 -0.121,0.538z"/><path d="M253.223,123.208c0.06,-0.359 0.12,-0.598 0.301,-1.077c0.18,-0.478 0.3,-0.897 0.48,-1.315c0.06,-0.24 0.18,-0.24 0.481,-0.24c0.12,0.24 0.12,0.539 -0.06,0.778c-0.241,0.478 -0.421,1.016 -0.601,1.555c-0.06,0.179 -0.12,0.418 -0.18,0.598l-0.481,0.119c0,-0.179 0,-0.359 0.06,-0.418z"/></g><path d="M258.581,188.149c-2.343,-3.946 -15.26,-14.053 -16.041,-15.069c-0.901,-6.279 1.322,-51.666 9.612,-50.949c7.029,0.598 6.789,13.933 7.39,18.657c0.841,6.758 0.06,39.288 -0.961,47.361z" fill="#64645a"/><path d="M246.085,176.907c0.841,-11.242 2.283,-45.088 5.827,-48.198c3.545,-3.11 4.566,13.216 4.686,17.76c0.12,4.246 -0.781,19.315 -1.742,31.514z" fill="#3c3c32"/></g><path d="M253.118,214.58c-6.729,6.339 -17.422,5.562 -24.751,0.539c-7.029,-4.784 -11.175,-15.787 -11.655,-23.98c-0.481,-7.714 -1.983,-18.956 2.643,-25.654c5.047,-7.235 8.411,-9.268 18.323,-9.508c6.609,-0.239 13.037,2.213 17.843,6.698c3.905,3.707 6.248,9.568 6.728,14.83c1.082,11.9 -3.003,31.275 -9.131,37.075z" fill="#64645a"/><g><path d="M230.861,183.388c0.06,-0.239 0,-0.478 0.962,-0.538c2.943,-0.299 8.951,-0.12 11.054,-0.18c2.102,-0.059 4.445,0.299 4.445,0.897c0,0.598 -0.721,1.017 -1.982,1.017c-2.283,0.06 -4.566,0.06 -6.789,0c-1.862,0 -3.664,-0.06 -5.467,-0.179c-0.661,-0.06 -2.463,-0.06 -2.223,-1.017z" fill="#000000"/><path d="M243.237,182.611c1.081,0 1.622,0.059 1.622,0.059c-0.36,0.778 -1.562,3.11 -1.922,3.11c-0.421,0 -1.562,-2.392 -1.923,-3.169c0,0 1.923,0 2.223,0z" fill="#ffffff"/><path d="M246.301,177.408c-3.304,3.468 -12.195,2.571 -15.019,0.239c-2.403,-1.973 -1.862,-6.039 0.601,-7.953c2.463,-1.914 6.368,-1.555 9.251,-1.674c2.944,0.358 4.867,0.239 6.008,3.289c0.841,2.212 0.421,4.843 -0.841,6.099z" fill="#f01446"/><path d="M244.018,170.95c1.562,-0.12 1.622,1.973 1.562,2.93c-0.06,0.957 -0.12,2.571 -1.502,2.452c-1.382,-0.12 -1.622,-1.615 -1.562,-2.452c0.06,-0.837 -0.12,-2.87 1.502,-2.93z" fill="#6e1e3c"/><path d="M233.385,170.95c1.562,-0.12 1.682,1.973 1.562,2.93c-0.121,0.957 -0.121,2.571 -1.502,2.452c-1.382,-0.12 -1.622,-1.615 -1.562,-2.452c0.06,-0.837 -0.06,-2.87 1.502,-2.93z" fill="#6e1e3c"/><path d="M222.991,174.358c-0.36,0 -0.6,-0.239 -0.66,-0.598c-0.121,-0.538 -0.121,-1.076 -0.121,-1.614c0.061,-0.538 0.481,-0.718 0.962,-0.897c0.36,0.538 0.42,1.256 0.24,1.854c0,0.478 0,0.956 -0.421,1.255z" fill="#000000"/><path d="M254.952,174.538c-0.841,-0.359 -0.721,-1.017 -0.661,-1.734c0,-0.778 0.12,-0.838 0.841,-1.137c0.781,0.718 0.841,1.854 0.12,2.631c-0.12,0.06 -0.18,0.12 -0.3,0.24z" fill="#000000"/><path d="M235.667,182.611h1.322c-0.541,0.956 -1.442,2.571 -1.742,2.571c-0.3,0 -1.141,-1.495 -1.622,-2.512c0.06,0 1.982,-0.059 2.042,-0.059z" fill="#ffffff"/></g><text transform="translate(180.53357,142.73383) scale(1.28776,1.28776)" font-size="40" xml:space="preserve" fill="#64645a" fill-rule="nonzero" stroke="none" stroke-width="1" stroke-linecap="butt" stroke-linejoin="miter" stroke-miterlimit="10" stroke-dasharray="" stroke-dashoffset="0" font-family="&quot;ヒラギノ角ゴ Pro W3&quot;, &quot;Hiragino Kaku Gothic Pro&quot;, Osaka, &quot;メイリオ&quot;, Meiryo, &quot;ＭＳ Ｐゴシック&quot;, &quot;MS PGothic&quot;" font-weight="normal" text-anchor="start" style="mix-blend-mode: normal"><tspan x="0" dy="0">?</tspan></text></g></g></svg>